# xmcd
#
# Track frame offsets:
#	150
#	24639
#	41749
#	59837
#	78801
#	96926
#	114379
#	131850
#	144736
#	162350
#
# Disc length: 2419 seconds
#
# Revision: 0
# Processed by: cddbd v1.4PL0 Copyright (c) Steve Scherf et al.
# Submitted via: audiograbber 1.82.02
#
DISCID=8e09710a
DTITLE=aaaa - mirek
DYEAR=2003
DGENRE=test
TTITLE0=aaaaaaaaa
TTITLE1=bbbbbbbbb
TTITLE2=ccccccccc
TTITLE3=ddddddddd
TTITLE4=eeeeeeeee
TTITLE5=ffffffffffffff
TTITLE6=ggggggg
TTITLE7=ttttttttt
TTITLE8=yyyyyyy
TTITLE9=sssssss
EXTD=
EXTT0=
EXTT1=
EXTT2=
EXTT3=
EXTT4=
EXTT5=
EXTT6=
EXTT7=
EXTT8=
EXTT9=
PLAYORDER=
